<svg width="32" height="32" viewBox="0 0 121 167" fill="none" xmlns="http://www.w3.org/2000/svg">
<rect width="121" height="167" fill="black"/>
<path d="M12.117 61.0803C11.406 61.0343 10.7476 60.9736 10.1504 60.9022C10.8156 60.9572 11.4711 61.0166 12.117 61.0803C20.5781 61.6285 36.4917 60.1111 45.5775 50.0982C55.4268 39.2439 58.3916 18.9424 58.6429 10.1484C58.8941 19.8637 62.1604 41.455 73.2157 50.0982C84.271 58.7414 102.445 60.9022 110.15 60.9022C95.3263 61.1535 65.1253 67.5856 62.9142 91.3042C60.7032 115.023 59.1454 144.236 58.6429 155.877C59.0616 138.959 59.1454 102.359 56.1303 91.3042C52.4365 77.7602 43.9156 64.2162 12.117 61.0803Z" fill="white"/>
</svg>
